<svg xmlns="http://www.w3.org/2000/svg" viewBox="0 0 64 64" fill="none">
  <defs>
    <linearGradient id="shieldGrad" x1="0%" y1="0%" x2="0%" y2="100%">
      <stop offset="0%" style="stop-color:#4da6ff"/>
      <stop offset="100%" style="stop-color:#1a73e8"/>
    </linearGradient>
  </defs>
  <!-- Shield shape -->
  <path d="M32 4C32 4 8 12 8 12v20c0 14 24 28 24 28s24-14 24-28V12S32 4 32 4z" fill="url(#shieldGrad)"/>
  <!-- Shield border -->
  <path d="M32 8C32 8 12 15 12 15v17c0 11.5 20 23 20 23s20-11.5 20-23V15S32 8 32 8z" fill="none" stroke="white" stroke-width="2"/>
  <!-- Airplane -->
  <path d="M22 36l6-4 8-14 3 1-4 13 8-4 2-4 2 1-1 5 5-2 1 2-6 4 1 5-2 1-2-4-8 4 1 3-2 1-4-8-6 4-2-1z" fill="white"/>
  <!-- Checkmark -->
  <path d="M38 44l-4 4-8-8 2-2 6 6 10-10 2 2z" fill="white" opacity="0.9"/>
</svg>
